<mxfile host="Electron" agent="Mozilla/5.0 (X11; Linux x86_64) AppleWebKit/537.36 (KHTML, like Gecko) draw.io/26.2.2 Chrome/134.0.6998.178 Electron/35.1.2 Safari/537.36" version="26.2.2" pages="2">
  <diagram name="Use case" id="3HQoBlBpktyqnvBrH0IM">
    <mxGraphModel dx="1190" dy="773" grid="1" gridSize="10" guides="1" tooltips="1" connect="1" arrows="1" fold="1" page="1" pageScale="1" pageWidth="827" pageHeight="583" math="0" shadow="0">
      <root>
        <mxCell id="0" />
        <mxCell id="1" parent="0" />
        <mxCell id="LWQjNumviTaEPy5Ch1wn-7" style="rounded=0;orthogonalLoop=1;jettySize=auto;html=1;entryX=0;entryY=0.5;entryDx=0;entryDy=0;exitX=0.5;exitY=0.5;exitDx=0;exitDy=0;exitPerimeter=0;" edge="1" parent="1" source="LWQjNumviTaEPy5Ch1wn-1" target="LWQjNumviTaEPy5Ch1wn-2">
          <mxGeometry relative="1" as="geometry" />
        </mxCell>
        <mxCell id="LWQjNumviTaEPy5Ch1wn-8" style="rounded=0;orthogonalLoop=1;jettySize=auto;html=1;exitX=0.5;exitY=0.5;exitDx=0;exitDy=0;exitPerimeter=0;entryX=0;entryY=0.5;entryDx=0;entryDy=0;" edge="1" parent="1" source="LWQjNumviTaEPy5Ch1wn-1" target="LWQjNumviTaEPy5Ch1wn-3">
          <mxGeometry relative="1" as="geometry" />
        </mxCell>
        <mxCell id="LWQjNumviTaEPy5Ch1wn-9" style="rounded=0;orthogonalLoop=1;jettySize=auto;html=1;exitX=0.5;exitY=0.5;exitDx=0;exitDy=0;exitPerimeter=0;entryX=0;entryY=0.5;entryDx=0;entryDy=0;" edge="1" parent="1" source="LWQjNumviTaEPy5Ch1wn-1" target="LWQjNumviTaEPy5Ch1wn-4">
          <mxGeometry relative="1" as="geometry" />
        </mxCell>
        <mxCell id="LWQjNumviTaEPy5Ch1wn-10" style="rounded=0;orthogonalLoop=1;jettySize=auto;html=1;exitX=0.5;exitY=0.5;exitDx=0;exitDy=0;exitPerimeter=0;entryX=0;entryY=0.5;entryDx=0;entryDy=0;" edge="1" parent="1" source="LWQjNumviTaEPy5Ch1wn-1" target="LWQjNumviTaEPy5Ch1wn-5">
          <mxGeometry relative="1" as="geometry" />
        </mxCell>
        <mxCell id="LWQjNumviTaEPy5Ch1wn-12" style="rounded=0;orthogonalLoop=1;jettySize=auto;html=1;exitX=0.5;exitY=0.5;exitDx=0;exitDy=0;exitPerimeter=0;entryX=0;entryY=0.5;entryDx=0;entryDy=0;" edge="1" parent="1" source="LWQjNumviTaEPy5Ch1wn-1" target="LWQjNumviTaEPy5Ch1wn-11">
          <mxGeometry relative="1" as="geometry" />
        </mxCell>
        <mxCell id="LWQjNumviTaEPy5Ch1wn-1" value="Actor" style="shape=umlActor;verticalLabelPosition=bottom;verticalAlign=top;html=1;" vertex="1" parent="1">
          <mxGeometry x="140" y="240" width="30" height="60" as="geometry" />
        </mxCell>
        <mxCell id="LWQjNumviTaEPy5Ch1wn-2" value="Read sensor data" style="ellipse;whiteSpace=wrap;html=1;" vertex="1" parent="1">
          <mxGeometry x="320" y="120" width="140" height="70" as="geometry" />
        </mxCell>
        <mxCell id="LWQjNumviTaEPy5Ch1wn-3" value="Data encapsulation" style="ellipse;whiteSpace=wrap;html=1;" vertex="1" parent="1">
          <mxGeometry x="320" y="235" width="140" height="70" as="geometry" />
        </mxCell>
        <mxCell id="LWQjNumviTaEPy5Ch1wn-4" value="Send data to the gateway" style="ellipse;whiteSpace=wrap;html=1;" vertex="1" parent="1">
          <mxGeometry x="320" y="350" width="140" height="70" as="geometry" />
        </mxCell>
        <mxCell id="LWQjNumviTaEPy5Ch1wn-5" value="Local alent" style="ellipse;whiteSpace=wrap;html=1;" vertex="1" parent="1">
          <mxGeometry x="320" y="470" width="140" height="70" as="geometry" />
        </mxCell>
        <mxCell id="LWQjNumviTaEPy5Ch1wn-11" value="Configure gateway&lt;div&gt;MAC address&lt;/div&gt;" style="ellipse;whiteSpace=wrap;html=1;" vertex="1" parent="1">
          <mxGeometry x="320" y="10" width="140" height="70" as="geometry" />
        </mxCell>
      </root>
    </mxGraphModel>
  </diagram>
  <diagram id="xj3vuVW94lVftlV6gzTk" name="Configure gateway MAC address">
    <mxGraphModel dx="1190" dy="773" grid="1" gridSize="10" guides="1" tooltips="1" connect="1" arrows="1" fold="1" page="1" pageScale="1" pageWidth="1169" pageHeight="827" math="0" shadow="0">
      <root>
        <mxCell id="0" />
        <mxCell id="1" parent="0" />
        <mxCell id="dkJBURaI-mjuRO_yOov_-16" style="edgeStyle=orthogonalEdgeStyle;rounded=0;orthogonalLoop=1;jettySize=auto;html=1;entryX=0.5;entryY=0;entryDx=0;entryDy=0;" edge="1" parent="1" source="dkJBURaI-mjuRO_yOov_-1" target="dkJBURaI-mjuRO_yOov_-15">
          <mxGeometry relative="1" as="geometry" />
        </mxCell>
        <mxCell id="dkJBURaI-mjuRO_yOov_-1" value="" style="ellipse;fillColor=strokeColor;html=1;" vertex="1" parent="1">
          <mxGeometry x="352" y="50" width="30" height="30" as="geometry" />
        </mxCell>
        <mxCell id="dkJBURaI-mjuRO_yOov_-6" style="edgeStyle=orthogonalEdgeStyle;rounded=0;orthogonalLoop=1;jettySize=auto;html=1;entryX=0.5;entryY=0;entryDx=0;entryDy=0;" edge="1" parent="1" source="dkJBURaI-mjuRO_yOov_-2" target="dkJBURaI-mjuRO_yOov_-5">
          <mxGeometry relative="1" as="geometry" />
        </mxCell>
        <mxCell id="dkJBURaI-mjuRO_yOov_-2" value="Load the MAC address configuration file" style="html=1;align=center;verticalAlign=top;rounded=1;absoluteArcSize=1;arcSize=10;dashed=0;whiteSpace=wrap;" vertex="1" parent="1">
          <mxGeometry x="297" y="180" width="140" height="40" as="geometry" />
        </mxCell>
        <mxCell id="dkJBURaI-mjuRO_yOov_-9" style="edgeStyle=orthogonalEdgeStyle;rounded=0;orthogonalLoop=1;jettySize=auto;html=1;entryX=0.5;entryY=0;entryDx=0;entryDy=0;" edge="1" parent="1" source="dkJBURaI-mjuRO_yOov_-4" target="dkJBURaI-mjuRO_yOov_-8">
          <mxGeometry relative="1" as="geometry">
            <mxPoint x="828" y="315" as="targetPoint" />
          </mxGeometry>
        </mxCell>
        <mxCell id="dkJBURaI-mjuRO_yOov_-4" value="Set up AP mode" style="html=1;align=center;verticalAlign=top;rounded=1;absoluteArcSize=1;arcSize=10;dashed=0;whiteSpace=wrap;" vertex="1" parent="1">
          <mxGeometry x="702" y="240" width="140" height="40" as="geometry" />
        </mxCell>
        <mxCell id="dkJBURaI-mjuRO_yOov_-7" style="edgeStyle=orthogonalEdgeStyle;rounded=0;orthogonalLoop=1;jettySize=auto;html=1;exitX=1;exitY=0.5;exitDx=0;exitDy=0;entryX=0;entryY=0.5;entryDx=0;entryDy=0;" edge="1" parent="1" source="dkJBURaI-mjuRO_yOov_-5" target="dkJBURaI-mjuRO_yOov_-27">
          <mxGeometry relative="1" as="geometry">
            <mxPoint x="502" y="255" as="targetPoint" />
          </mxGeometry>
        </mxCell>
        <mxCell id="dkJBURaI-mjuRO_yOov_-20" style="edgeStyle=orthogonalEdgeStyle;rounded=0;orthogonalLoop=1;jettySize=auto;html=1;exitX=0.5;exitY=1;exitDx=0;exitDy=0;" edge="1" parent="1" source="dkJBURaI-mjuRO_yOov_-5" target="dkJBURaI-mjuRO_yOov_-19">
          <mxGeometry relative="1" as="geometry" />
        </mxCell>
        <mxCell id="dkJBURaI-mjuRO_yOov_-5" value="" style="rhombus;" vertex="1" parent="1">
          <mxGeometry x="352" y="240" width="30" height="30" as="geometry" />
        </mxCell>
        <mxCell id="dkJBURaI-mjuRO_yOov_-11" style="edgeStyle=orthogonalEdgeStyle;rounded=0;orthogonalLoop=1;jettySize=auto;html=1;entryX=0.5;entryY=0;entryDx=0;entryDy=0;" edge="1" parent="1" source="dkJBURaI-mjuRO_yOov_-8" target="dkJBURaI-mjuRO_yOov_-10">
          <mxGeometry relative="1" as="geometry" />
        </mxCell>
        <mxCell id="dkJBURaI-mjuRO_yOov_-8" value="Config the MAC address" style="html=1;align=center;verticalAlign=top;rounded=1;absoluteArcSize=1;arcSize=10;dashed=0;whiteSpace=wrap;" vertex="1" parent="1">
          <mxGeometry x="702" y="325" width="140" height="40" as="geometry" />
        </mxCell>
        <mxCell id="dkJBURaI-mjuRO_yOov_-14" style="edgeStyle=orthogonalEdgeStyle;rounded=0;orthogonalLoop=1;jettySize=auto;html=1;entryX=0.5;entryY=0;entryDx=0;entryDy=0;" edge="1" parent="1" source="dkJBURaI-mjuRO_yOov_-10" target="dkJBURaI-mjuRO_yOov_-13">
          <mxGeometry relative="1" as="geometry" />
        </mxCell>
        <mxCell id="dkJBURaI-mjuRO_yOov_-10" value="Write the MAC address to SPIFFS" style="html=1;align=center;verticalAlign=top;rounded=1;absoluteArcSize=1;arcSize=10;dashed=0;whiteSpace=wrap;" vertex="1" parent="1">
          <mxGeometry x="702" y="405" width="140" height="40" as="geometry" />
        </mxCell>
        <mxCell id="dkJBURaI-mjuRO_yOov_-12" value="[Absent]" style="text;html=1;align=center;verticalAlign=middle;resizable=0;points=[];autosize=1;strokeColor=none;fillColor=none;" vertex="1" parent="1">
          <mxGeometry x="412" y="232" width="70" height="30" as="geometry" />
        </mxCell>
        <mxCell id="dkJBURaI-mjuRO_yOov_-18" style="edgeStyle=orthogonalEdgeStyle;rounded=0;orthogonalLoop=1;jettySize=auto;html=1;entryX=1;entryY=0.5;entryDx=0;entryDy=0;" edge="1" parent="1" source="dkJBURaI-mjuRO_yOov_-13" target="dkJBURaI-mjuRO_yOov_-15">
          <mxGeometry relative="1" as="geometry">
            <mxPoint x="772" y="140" as="targetPoint" />
            <Array as="points">
              <mxPoint x="902" y="505" />
              <mxPoint x="902" y="125" />
            </Array>
          </mxGeometry>
        </mxCell>
        <mxCell id="dkJBURaI-mjuRO_yOov_-13" value="Reboot the device" style="html=1;align=center;verticalAlign=top;rounded=1;absoluteArcSize=1;arcSize=10;dashed=0;whiteSpace=wrap;" vertex="1" parent="1">
          <mxGeometry x="702" y="485" width="140" height="40" as="geometry" />
        </mxCell>
        <mxCell id="dkJBURaI-mjuRO_yOov_-17" style="edgeStyle=orthogonalEdgeStyle;rounded=0;orthogonalLoop=1;jettySize=auto;html=1;entryX=0.5;entryY=0;entryDx=0;entryDy=0;" edge="1" parent="1" source="dkJBURaI-mjuRO_yOov_-15" target="dkJBURaI-mjuRO_yOov_-2">
          <mxGeometry relative="1" as="geometry" />
        </mxCell>
        <mxCell id="dkJBURaI-mjuRO_yOov_-15" value="" style="rhombus;" vertex="1" parent="1">
          <mxGeometry x="352" y="110" width="30" height="30" as="geometry" />
        </mxCell>
        <mxCell id="dkJBURaI-mjuRO_yOov_-24" style="edgeStyle=orthogonalEdgeStyle;rounded=0;orthogonalLoop=1;jettySize=auto;html=1;exitX=0.5;exitY=1;exitDx=0;exitDy=0;entryX=0.5;entryY=0;entryDx=0;entryDy=0;" edge="1" parent="1" source="dkJBURaI-mjuRO_yOov_-19" target="dkJBURaI-mjuRO_yOov_-35">
          <mxGeometry relative="1" as="geometry">
            <mxPoint x="367" y="430" as="targetPoint" />
          </mxGeometry>
        </mxCell>
        <mxCell id="dkJBURaI-mjuRO_yOov_-19" value="Send an ACK message to the gateway&lt;div&gt;- ID&lt;/div&gt;&lt;div&gt;- MAC address&lt;/div&gt;&lt;div&gt;- Sensor data message structure&lt;/div&gt;&lt;div&gt;- ACK request&lt;/div&gt;" style="html=1;align=left;verticalAlign=top;rounded=1;absoluteArcSize=1;arcSize=10;dashed=0;whiteSpace=wrap;" vertex="1" parent="1">
          <mxGeometry x="260" y="320" width="215" height="90" as="geometry" />
        </mxCell>
        <mxCell id="dkJBURaI-mjuRO_yOov_-21" value="[Present]" style="text;html=1;align=center;verticalAlign=middle;resizable=0;points=[];autosize=1;strokeColor=none;fillColor=none;" vertex="1" parent="1">
          <mxGeometry x="305" y="272" width="70" height="30" as="geometry" />
        </mxCell>
        <mxCell id="dkJBURaI-mjuRO_yOov_-26" style="edgeStyle=orthogonalEdgeStyle;rounded=0;orthogonalLoop=1;jettySize=auto;html=1;exitX=0.5;exitY=1;exitDx=0;exitDy=0;entryX=0.5;entryY=0;entryDx=0;entryDy=0;" edge="1" parent="1" source="dkJBURaI-mjuRO_yOov_-23" target="dkJBURaI-mjuRO_yOov_-25">
          <mxGeometry relative="1" as="geometry" />
        </mxCell>
        <mxCell id="dkJBURaI-mjuRO_yOov_-23" value="Wait for ACK" style="html=1;align=center;verticalAlign=top;rounded=1;absoluteArcSize=1;arcSize=10;dashed=0;whiteSpace=wrap;" vertex="1" parent="1">
          <mxGeometry x="297" y="505" width="140" height="40" as="geometry" />
        </mxCell>
        <mxCell id="dkJBURaI-mjuRO_yOov_-29" style="edgeStyle=orthogonalEdgeStyle;rounded=0;orthogonalLoop=1;jettySize=auto;html=1;exitX=1;exitY=0.5;exitDx=0;exitDy=0;entryX=0;entryY=0.5;entryDx=0;entryDy=0;" edge="1" parent="1" source="dkJBURaI-mjuRO_yOov_-25" target="dkJBURaI-mjuRO_yOov_-31">
          <mxGeometry relative="1" as="geometry">
            <mxPoint x="334" y="580" as="sourcePoint" />
            <mxPoint x="454" y="580" as="targetPoint" />
          </mxGeometry>
        </mxCell>
        <mxCell id="dkJBURaI-mjuRO_yOov_-42" style="edgeStyle=orthogonalEdgeStyle;rounded=0;orthogonalLoop=1;jettySize=auto;html=1;" edge="1" parent="1" source="dkJBURaI-mjuRO_yOov_-25" target="dkJBURaI-mjuRO_yOov_-41">
          <mxGeometry relative="1" as="geometry" />
        </mxCell>
        <mxCell id="dkJBURaI-mjuRO_yOov_-25" value="" style="rhombus;" vertex="1" parent="1">
          <mxGeometry x="352" y="565" width="30" height="30" as="geometry" />
        </mxCell>
        <mxCell id="dkJBURaI-mjuRO_yOov_-27" value="" style="rhombus;" vertex="1" parent="1">
          <mxGeometry x="557" y="240" width="30" height="30" as="geometry" />
        </mxCell>
        <mxCell id="dkJBURaI-mjuRO_yOov_-28" style="edgeStyle=orthogonalEdgeStyle;rounded=0;orthogonalLoop=1;jettySize=auto;html=1;exitX=1;exitY=0.5;exitDx=0;exitDy=0;entryX=-0.021;entryY=0.379;entryDx=0;entryDy=0;entryPerimeter=0;" edge="1" parent="1" source="dkJBURaI-mjuRO_yOov_-27" target="dkJBURaI-mjuRO_yOov_-4">
          <mxGeometry relative="1" as="geometry">
            <mxPoint x="601" y="255" as="targetPoint" />
          </mxGeometry>
        </mxCell>
        <mxCell id="dkJBURaI-mjuRO_yOov_-30" value="[Timeout]" style="text;html=1;align=center;verticalAlign=middle;resizable=0;points=[];autosize=1;strokeColor=none;fillColor=none;" vertex="1" parent="1">
          <mxGeometry x="405" y="552" width="70" height="30" as="geometry" />
        </mxCell>
        <mxCell id="dkJBURaI-mjuRO_yOov_-33" style="edgeStyle=orthogonalEdgeStyle;rounded=0;orthogonalLoop=1;jettySize=auto;html=1;exitX=0.5;exitY=0;exitDx=0;exitDy=0;entryX=0.5;entryY=1;entryDx=0;entryDy=0;" edge="1" parent="1" source="dkJBURaI-mjuRO_yOov_-31" target="dkJBURaI-mjuRO_yOov_-32">
          <mxGeometry relative="1" as="geometry">
            <mxPoint x="592" y="520" as="targetPoint" />
          </mxGeometry>
        </mxCell>
        <mxCell id="dkJBURaI-mjuRO_yOov_-31" value="Resend the message" style="html=1;align=center;verticalAlign=top;rounded=1;absoluteArcSize=1;arcSize=10;dashed=0;whiteSpace=wrap;" vertex="1" parent="1">
          <mxGeometry x="502" y="560" width="140" height="40" as="geometry" />
        </mxCell>
        <mxCell id="dkJBURaI-mjuRO_yOov_-36" style="edgeStyle=orthogonalEdgeStyle;rounded=0;orthogonalLoop=1;jettySize=auto;html=1;exitX=0;exitY=0.5;exitDx=0;exitDy=0;entryX=1;entryY=0.5;entryDx=0;entryDy=0;" edge="1" parent="1" source="dkJBURaI-mjuRO_yOov_-32" target="dkJBURaI-mjuRO_yOov_-35">
          <mxGeometry relative="1" as="geometry" />
        </mxCell>
        <mxCell id="dkJBURaI-mjuRO_yOov_-38" style="edgeStyle=orthogonalEdgeStyle;rounded=0;orthogonalLoop=1;jettySize=auto;html=1;entryX=0.5;entryY=1;entryDx=0;entryDy=0;" edge="1" parent="1" source="dkJBURaI-mjuRO_yOov_-32" target="dkJBURaI-mjuRO_yOov_-27">
          <mxGeometry relative="1" as="geometry" />
        </mxCell>
        <mxCell id="dkJBURaI-mjuRO_yOov_-32" value="" style="rhombus;" vertex="1" parent="1">
          <mxGeometry x="557" y="455" width="30" height="30" as="geometry" />
        </mxCell>
        <mxCell id="dkJBURaI-mjuRO_yOov_-37" style="edgeStyle=orthogonalEdgeStyle;rounded=0;orthogonalLoop=1;jettySize=auto;html=1;entryX=0.5;entryY=0;entryDx=0;entryDy=0;" edge="1" parent="1" source="dkJBURaI-mjuRO_yOov_-35" target="dkJBURaI-mjuRO_yOov_-23">
          <mxGeometry relative="1" as="geometry" />
        </mxCell>
        <mxCell id="dkJBURaI-mjuRO_yOov_-35" value="" style="rhombus;" vertex="1" parent="1">
          <mxGeometry x="352" y="455" width="30" height="30" as="geometry" />
        </mxCell>
        <mxCell id="dkJBURaI-mjuRO_yOov_-39" value="&lt;font style=&quot;font-size: 9px;&quot;&gt;[Exceeding the number of retries]&lt;/font&gt;" style="text;html=1;align=center;verticalAlign=middle;resizable=0;points=[];autosize=1;strokeColor=none;fillColor=none;rotation=-90;" vertex="1" parent="1">
          <mxGeometry x="480" y="348" width="160" height="30" as="geometry" />
        </mxCell>
        <mxCell id="dkJBURaI-mjuRO_yOov_-40" value="&lt;font style=&quot;font-size: 8px;&quot;&gt;[Do not exceed the number of retries]&lt;/font&gt;" style="text;html=1;align=center;verticalAlign=middle;resizable=0;points=[];autosize=1;strokeColor=none;fillColor=none;" vertex="1" parent="1">
          <mxGeometry x="390" y="446" width="160" height="30" as="geometry" />
        </mxCell>
        <mxCell id="dkJBURaI-mjuRO_yOov_-45" style="edgeStyle=orthogonalEdgeStyle;rounded=0;orthogonalLoop=1;jettySize=auto;html=1;entryX=0.5;entryY=0;entryDx=0;entryDy=0;" edge="1" parent="1" source="dkJBURaI-mjuRO_yOov_-41" target="dkJBURaI-mjuRO_yOov_-44">
          <mxGeometry relative="1" as="geometry" />
        </mxCell>
        <mxCell id="dkJBURaI-mjuRO_yOov_-41" value="Notification" style="html=1;align=center;verticalAlign=top;rounded=1;absoluteArcSize=1;arcSize=10;dashed=0;whiteSpace=wrap;" vertex="1" parent="1">
          <mxGeometry x="297" y="640" width="140" height="40" as="geometry" />
        </mxCell>
        <mxCell id="dkJBURaI-mjuRO_yOov_-43" value="[Get a response]" style="text;html=1;align=center;verticalAlign=middle;resizable=0;points=[];autosize=1;strokeColor=none;fillColor=none;" vertex="1" parent="1">
          <mxGeometry x="264" y="598" width="110" height="30" as="geometry" />
        </mxCell>
        <mxCell id="dkJBURaI-mjuRO_yOov_-44" value="" style="ellipse;html=1;shape=endState;fillColor=strokeColor;" vertex="1" parent="1">
          <mxGeometry x="352" y="710" width="30" height="30" as="geometry" />
        </mxCell>
      </root>
    </mxGraphModel>
  </diagram>
</mxfile>
